<?xml version="1.0" standalone="no"?>
<!DOCTYPE svg PUBLIC "-//W3C//DTD SVG 20010904//EN"
 "http://www.w3.org/TR/2001/REC-SVG-20010904/DTD/svg10.dtd">
<svg version="1.0" xmlns="http://www.w3.org/2000/svg"
 width="896.000000pt" height="278.000000pt" viewBox="0 0 896.000000 278.000000"
 preserveAspectRatio="xMidYMid meet">

<g transform="translate(0.000000,278.000000) scale(0.100000,-0.100000)"
fill="#000000" stroke="none">
<path d="M4330 2251 c0 -6 5 -11 11 -11 8 0 8 -4 0 -14 -22 -27 10 -30 36 -4
15 15 19 25 11 26 -7 0 -23 4 -35 7 -15 5 -23 3 -23 -4z"/>
<path d="M4055 2166 c-51 -41 -89 -80 -89 -89 1 -9 -15 -34 -36 -56 -28 -29
-49 -41 -77 -45 -21 -3 -49 -8 -62 -12 l-24 -7 19 25 c10 14 22 24 25 22 3 -1
14 7 24 19 9 12 29 35 44 51 l26 30 -27 -17 c-32 -20 -42 -22 -32 -5 4 7 3 8
-5 4 -6 -4 -9 -12 -5 -17 7 -12 -112 -131 -129 -128 -7 1 -25 -3 -41 -10 -16
-6 -31 -9 -34 -6 -3 2 -11 0 -19 -7 -7 -6 -16 -8 -20 -5 -3 4 -14 2 -25 -4
-18 -10 -19 -9 -7 13 16 32 50 63 69 63 8 0 19 10 25 23 5 12 13 22 17 22 4 0
20 13 36 29 15 16 37 29 47 28 13 -1 19 3 17 13 -2 8 -4 23 -5 32 -2 22 -16
23 -23 3 -7 -18 -30 -20 -37 -2 -3 6 -3 -3 0 -20 3 -21 1 -33 -6 -33 -10 0
-15 21 -14 57 0 6 -6 9 -14 6 -9 -3 -13 -14 -10 -25 4 -14 1 -18 -8 -14 -17 6
-29 -9 -20 -24 5 -8 11 -7 21 1 8 6 14 9 14 5 0 -3 -23 -28 -51 -54 -28 -26
-85 -80 -126 -119 -42 -40 -83 -73 -91 -73 -10 0 -12 4 -6 13 5 7 0 3 -11 -10
-12 -13 -24 -23 -29 -23 -4 0 -44 -18 -88 -40 -78 -40 -112 -44 -86 -12 26 32
-47 -26 -84 -67 -20 -23 -42 -41 -48 -41 -7 0 -2 9 11 20 29 24 18 26 -17 4
-14 -10 -23 -23 -20 -31 3 -8 1 -11 -5 -8 -5 4 -31 -11 -56 -32 -120 -100
-196 -154 -210 -149 -8 3 -12 10 -9 14 3 5 -3 8 -12 7 -23 -2 -65 -25 -58 -32
3 -3 13 0 23 8 15 12 15 11 -1 -13 -12 -19 -14 -28 -6 -28 6 0 10 -6 8 -12 -3
-7 -11 -13 -19 -13 -7 0 -19 -11 -26 -25 -17 -36 -75 -88 -80 -72 -3 8 -19 2
-49 -20 -50 -36 -83 -78 -61 -78 8 0 22 9 32 20 27 30 38 13 13 -22 -12 -18
-24 -26 -26 -20 -8 25 -24 11 -18 -15 4 -16 3 -23 -1 -18 -16 21 -33 13 -101
-50 -38 -35 -72 -62 -76 -58 -3 3 -6 1 -6 -6 0 -7 -5 -9 -10 -6 -6 3 -14 -4
-19 -17 -14 -35 -61 -80 -78 -74 -8 3 -12 2 -8 -3 7 -12 -180 -172 -197 -168
-7 2 -10 2 -5 -1 4 -2 -6 -19 -23 -38 -32 -37 -39 -60 -16 -51 8 3 17 -1 20
-9 8 -22 7 -26 -3 -19 -51 31 -171 -314 -206 -593 l-7 -52 178 2 178 3 3 35
c2 19 7 42 10 50 8 18 9 21 27 144 8 55 13 103 11 107 -9 14 38 144 66 186 16
23 29 48 29 56 0 8 16 38 35 67 19 29 35 54 35 56 0 9 84 130 98 141 8 7 12
19 9 28 -4 8 -2 15 3 15 6 0 10 -6 10 -12 1 -7 9 1 18 17 9 17 36 59 60 93 31
45 47 60 59 55 13 -5 10 -11 -16 -32 -17 -14 -31 -31 -31 -37 0 -6 -6 -17 -14
-23 -7 -6 -16 -25 -19 -41 -4 -18 -17 -35 -34 -44 l-28 -15 24 -9 c18 -6 21
-11 12 -17 -8 -4 -16 -2 -21 4 -19 32 -210 -262 -216 -332 -1 -10 -9 -24 -19
-31 -15 -11 -19 -31 -21 -110 -2 -74 -8 -105 -22 -130 -30 -50 -32 -77 -13
-136 10 -30 14 -56 10 -58 -5 -2 -9 -9 -9 -16 0 -8 18 -13 50 -15 47 -2 50 -1
46 21 -3 13 -5 29 -5 36 -1 7 -5 10 -11 7 -16 -10 -12 20 8 54 9 17 25 31 35
31 9 0 17 6 18 13 0 6 2 23 5 36 2 13 0 29 -6 36 -6 7 -8 24 -5 38 4 14 2 28
-4 32 -8 4 -8 12 -1 25 6 11 8 30 5 42 -3 14 3 36 17 58 12 20 20 47 19 63 -1
15 3 35 10 44 7 8 15 27 17 41 4 32 28 80 54 108 11 12 21 30 22 40 3 21 52
29 63 11 4 -6 9 -3 13 7 6 18 7 18 25 0 10 -11 23 -19 29 -20 6 0 24 -6 39
-12 37 -16 64 -15 74 2 11 18 53 40 53 26 0 -5 -9 -15 -20 -22 -31 -20 -24
-30 9 -14 16 9 31 25 34 37 3 11 10 18 15 15 5 -3 17 3 27 14 10 11 29 20 42
20 18 0 23 -5 23 -24 0 -14 -9 -31 -20 -39 -25 -17 -17 -47 13 -47 18 0 19 -2
5 -17 -9 -10 -13 -24 -10 -32 2 -8 0 -11 -6 -7 -6 3 -17 -1 -25 -9 -9 -8 -17
-15 -20 -15 -8 0 -2 75 7 82 8 5 -21 5 -71 -1 -7 0 -10 -7 -8 -14 2 -6 6 -33
9 -59 3 -35 1 -48 -9 -48 -7 0 -15 12 -18 26 -3 19 -1 24 10 20 8 -3 11 -1 8
4 -3 6 -12 10 -20 10 -8 0 -11 7 -8 21 5 19 4 20 -15 10 -27 -14 -32 -14 -32
2 0 8 -11 19 -25 25 -22 10 -25 9 -25 -8 0 -12 -10 -25 -25 -32 -32 -14 -32
-31 0 -52 14 -9 24 -22 22 -29 -2 -13 15 -14 51 -3 21 7 22 5 16 -18 -5 -20
-2 -26 10 -26 15 0 36 -28 36 -49 0 -6 -6 -11 -14 -11 -7 0 -19 -6 -25 -14 -9
-11 -6 -13 17 -10 22 3 32 -2 42 -21 16 -30 10 -38 -30 -37 -34 1 -39 -12 -11
-28 19 -10 26 -50 9 -50 -16 0 -7 -37 14 -60 l22 -24 13 33 c8 18 11 36 8 40
-8 14 28 7 46 -9 14 -13 15 -18 2 -38 -12 -20 -12 -22 5 -22 23 0 45 -43 30
-58 -7 -7 -5 -19 6 -38 l15 -29 1 25 c3 66 19 91 45 70 13 -11 15 -9 15 11 0
31 19 12 22 -23 2 -26 28 -29 28 -3 0 7 7 16 16 19 25 10 34 7 28 -9 -12 -32
16 -13 37 24 14 26 31 41 48 44 33 7 37 2 20 -20 -7 -10 -1 -7 15 7 l29 25 -7
-27 c-4 -17 -2 -28 4 -28 5 0 10 -14 10 -31 0 -28 3 -31 25 -27 20 4 25 1 25
-16 0 -13 -3 -16 -8 -10 -4 7 -19 12 -34 12 -21 0 -28 -5 -28 -19 0 -11 6 -19
13 -19 6 -1 2 -6 -10 -13 -26 -14 -27 -26 -7 -49 14 -15 14 -17 -3 -21 -10 -3
56 -4 147 -3 126 1 164 4 162 14 -1 6 2 12 8 12 5 0 10 -7 10 -15 0 -13 25
-15 164 -15 l164 0 -19 37 c-14 27 -16 40 -8 50 9 10 7 13 -9 13 -16 0 -19 5
-15 23 4 20 3 20 -7 4 -14 -22 -34 -12 -21 10 10 19 3 52 -16 75 -18 20 -8 67
10 49 18 -18 49 -14 45 7 -2 11 -11 16 -27 14 -15 -2 -21 0 -17 7 4 6 0 11 -8
11 -20 0 -20 4 -1 40 9 18 24 30 35 30 11 0 20 5 20 10 0 6 10 30 21 55 18 38
20 52 11 85 -8 32 -7 40 4 40 8 0 19 -9 26 -20 20 -31 58 -21 58 16 0 14 -20
1 -20 -13 -1 -16 -2 -16 -15 2 -8 11 -27 33 -42 48 -24 25 -26 30 -12 38 9 4
24 20 33 34 16 24 16 26 -6 34 -14 5 -29 4 -40 -3 -24 -15 -29 -6 -33 65 -2
35 -4 68 -4 73 -1 5 -4 6 -8 3 -3 -4 -15 1 -26 10 -20 17 -20 17 -14 0 10 -26
-2 -67 -19 -67 -8 0 -14 5 -14 11 0 8 -4 8 -14 0 -11 -9 -12 -6 -9 16 8 51 13
59 23 43 8 -12 10 -12 16 3 3 9 12 17 19 17 7 0 15 13 17 30 6 39 -3 38 -27
-2 l-20 -33 -3 28 c-4 33 -16 34 -42 4 -24 -28 -73 -31 -78 -4 -3 14 4 17 33
17 32 0 36 2 25 15 -10 12 -9 15 4 15 26 0 58 34 50 54 -5 12 -2 15 10 10 9
-3 16 -1 16 4 0 19 -17 22 -30 7 -12 -14 -40 -21 -40 -10 0 13 35 43 43 38 6
-3 7 -1 3 6 -10 15 15 82 28 74 5 -4 7 1 3 13 -7 18 -6 18 6 2 8 -10 17 -15
20 -11 4 3 2 12 -4 20 -7 8 -8 13 -1 13 5 0 12 -7 16 -15 3 -9 18 -15 36 -15
18 0 29 4 25 10 -3 5 -1 10 4 10 6 0 11 -9 11 -20 0 -11 4 -20 9 -20 15 0 23
18 12 25 -6 3 -8 12 -4 20 3 9 -1 15 -10 15 -19 0 -36 48 -30 83 5 23 2 26
-23 24 -26 -2 -29 1 -30 28 -1 17 6 36 15 43 13 10 13 12 1 10 -8 -2 -20 -8
-28 -15 -10 -10 -17 -8 -34 9 -12 12 -23 31 -24 42 -1 12 -3 24 -3 28 -1 3
-19 9 -41 13 -47 8 -49 19 -11 63 25 29 27 37 21 77 -6 37 -4 43 7 34 17 -14
43 5 43 32 0 10 5 21 10 24 6 3 10 17 10 30 0 13 4 26 10 30 5 3 7 -9 4 -31
-4 -34 -3 -36 18 -30 13 3 27 6 31 6 5 0 5 5 1 12 -4 7 -3 8 5 4 6 -4 9 -11 6
-16 -3 -4 3 -11 12 -14 14 -6 14 -8 -3 -21 -18 -13 -18 -14 -1 -20 22 -9 19
-52 -6 -80 -17 -19 -17 -20 -1 -32 17 -12 17 -14 -2 -27 -27 -20 -10 -32 18
-12 12 9 29 16 37 16 8 0 23 7 33 17 17 15 18 15 18 -1 0 -9 7 -30 15 -47 14
-27 14 -30 -1 -36 -9 -3 -19 0 -24 7 -6 9 -12 9 -29 0 -26 -13 -23 -34 5 -37
19 -3 19 -3 0 5 -18 8 -18 9 -2 15 24 10 26 9 26 -7 0 -14 28 -29 46 -25 5 1
21 -1 37 -6 20 -5 34 -21 53 -62 25 -52 25 -55 8 -74 -9 -10 -14 -22 -9 -27 4
-4 10 -1 12 6 9 25 33 12 33 -19 0 -16 4 -28 9 -24 15 8 100 -57 100 -78 1
-16 45 -43 64 -38 5 1 5 -9 2 -21 l-7 -23 18 20 c26 29 56 22 48 -11 -4 -14
-2 -24 5 -24 6 0 11 -11 11 -25 0 -29 24 -34 38 -9 9 15 11 15 31 2 16 -11 19
-17 9 -21 -7 -2 -9 -8 -5 -13 5 -5 18 3 31 19 26 32 42 34 51 7 8 -24 30 -26
39 -4 5 12 2 15 -10 10 -14 -5 -15 -4 -4 9 8 10 21 13 34 9 17 -5 15 -1 -10
24 -23 21 -29 33 -21 41 6 6 8 13 5 17 -4 3 -16 -4 -27 -15 -11 -11 -27 -18
-35 -15 -8 3 -22 -5 -31 -18 l-17 -23 5 24 c4 15 -2 34 -16 53 -19 25 -20 32
-8 51 9 14 9 18 1 10 -9 -8 -17 -6 -31 8 -23 23 -24 36 -5 54 15 16 27 10 20
-10 -3 -7 2 -15 11 -18 8 -4 20 -18 25 -32 12 -31 35 -24 56 17 13 26 13 32 1
46 -15 18 -12 52 5 52 5 0 8 -7 5 -15 -10 -24 13 -28 32 -6 10 11 21 18 24 14
4 -3 -3 -14 -15 -24 -18 -16 -19 -21 -7 -35 11 -14 10 -18 -6 -30 -17 -13 -18
-16 -5 -24 11 -7 18 -3 27 13 10 18 12 19 13 5 0 -12 8 -18 25 -18 20 0 25 5
25 25 0 28 12 32 30 10 19 -23 38 -18 55 14 8 16 20 32 27 34 8 4 5 8 -9 12
-13 4 -20 11 -17 16 8 14 -8 80 -19 76 -6 -2 -17 -22 -26 -45 -8 -23 -19 -42
-24 -42 -5 0 -7 39 -5 87 2 62 0 87 -9 90 -9 3 -8 11 3 29 9 13 14 33 11 44
-3 13 1 24 14 30 10 6 19 16 19 23 1 18 47 67 63 67 9 0 17 -15 22 -36 8 -44
20 -36 17 11 -3 40 7 44 33 15 43 -48 89 -28 83 37 -2 29 -8 38 -25 43 -13 3
-31 12 -41 21 -35 30 -42 31 -42 7 0 -18 2 -20 10 -8 6 9 10 10 10 3 0 -20
-19 -25 -35 -10 -8 8 -12 17 -9 19 10 11 -86 17 -117 8 -42 -12 -39 -13 -39 5
0 14 6 16 50 20 8 0 21 4 28 8 6 5 17 5 22 2 6 -3 10 -1 10 6 0 7 10 2 21 -10
17 -18 23 -20 30 -10 6 10 19 5 56 -21 32 -22 42 -26 29 -12 -11 12 -20 32
-21 45 -1 12 -7 23 -13 23 -7 1 -19 2 -27 3 -8 0 -15 8 -15 16 0 8 -4 15 -10
15 -5 0 -7 -7 -4 -15 4 -8 1 -15 -5 -15 -6 0 -16 11 -20 24 -11 27 -24 34 -68
32 -17 -1 -30 2 -28 5 2 3 -7 13 -20 23 -14 10 -22 22 -19 27 3 5 -4 9 -16 9
-12 0 -18 5 -15 10 10 17 -40 29 -129 31 -46 1 -89 5 -95 8 -15 10 -111 -3
-119 -15 -4 -6 -23 -10 -42 -11 -52 -1 -157 -20 -177 -33 -15 -9 -11 -10 17
-6 19 3 2 -5 -38 -19 -39 -13 -95 -25 -123 -26 -27 -2 -52 -6 -55 -11 -7 -11
-24 -10 -24 2 0 6 14 13 30 17 28 5 53 23 32 23 -23 0 -72 -23 -72 -34 0 -13
-70 -40 -79 -31 -7 7 5 16 26 19 10 2 18 11 18 20 0 9 10 22 22 29 12 7 38 22
58 35 20 12 33 18 30 12 -3 -5 -2 -10 4 -10 5 0 12 4 16 10 3 5 12 7 20 3 9
-3 27 3 43 13 28 19 92 27 92 12 0 -5 -19 -18 -42 -29 -24 -10 -52 -26 -62
-34 -30 -23 -2 -18 82 13 61 23 70 30 60 42 -11 12 -10 12 3 2 9 -7 25 -9 35
-5 22 8 54 41 54 57 0 6 7 3 14 -6 11 -15 15 -16 32 -3 22 17 38 19 29 5 -3
-5 1 -10 9 -10 9 0 16 5 16 10 0 6 11 8 25 4 15 -4 32 -1 41 7 13 10 17 10 24
-1 5 -8 19 -15 32 -16 13 -1 31 -5 41 -9 10 -4 28 -3 40 3 58 28 117 25 117
-6 0 -14 2 -14 9 -3 5 8 16 11 26 8 9 -4 14 -11 10 -16 -3 -6 43 -8 117 -6 80
2 137 -2 163 -10 22 -7 63 -18 90 -25 72 -18 146 -45 191 -71 21 -12 80 -42
129 -67 50 -24 102 -53 116 -63 14 -10 63 -37 107 -60 44 -23 108 -63 141 -90
34 -27 64 -49 68 -49 3 0 24 -15 47 -33 23 -19 52 -40 66 -47 14 -7 43 -28 66
-46 59 -48 215 -220 218 -241 2 -10 9 -18 17 -18 17 0 109 -137 150 -225 17
-36 35 -74 41 -85 31 -54 38 -71 38 -87 0 -10 5 -18 10 -18 6 0 10 -9 10 -19
0 -11 7 -26 15 -35 8 -8 15 -20 15 -27 0 -7 8 -21 17 -31 10 -11 23 -61 34
-129 12 -73 25 -118 38 -135 11 -14 17 -32 14 -40 -3 -8 0 -14 5 -14 13 0 33
-66 26 -84 -3 -8 2 -21 11 -29 8 -9 15 -20 13 -24 -1 -4 4 -36 12 -71 12 -58
14 -62 40 -62 16 0 30 7 34 15 3 8 1 15 -4 15 -9 0 -17 30 -24 94 -3 22 -10
42 -17 46 -6 4 -13 25 -14 46 -3 36 -8 62 -33 154 -14 50 -44 133 -52 145 -4
6 -17 37 -30 70 -21 53 -92 195 -155 307 -30 55 -115 179 -144 211 l-25 27 35
30 c20 17 26 27 15 23 -13 -4 -17 -3 -12 5 3 6 1 14 -5 18 -9 5 -10 0 -6 -15
3 -14 -1 -24 -13 -31 -24 -13 -30 -13 -30 3 0 7 -9 18 -21 25 -12 7 -19 16
-16 18 3 3 -11 21 -31 39 -28 26 -33 35 -19 35 9 0 17 8 17 18 0 9 9 23 20 30
26 16 25 40 -2 65 -17 15 -18 18 -5 14 21 -8 23 11 2 19 -12 5 -13 10 -4 20 7
8 7 14 1 14 -9 0 -30 -20 -30 -30 0 -3 -6 -17 -13 -33 -14 -32 -6 -46 19 -30
15 9 17 7 16 -14 0 -13 -10 -34 -22 -46 l-22 -21 -29 28 c-17 16 -29 34 -28
39 1 6 -3 11 -8 12 -6 0 -29 18 -52 40 -51 50 -140 125 -147 125 -6 0 -15 8
-74 56 l-26 21 34 33 35 34 -37 -27 c-20 -15 -41 -27 -46 -27 -4 0 -61 32
-126 70 -64 39 -118 70 -121 70 -2 0 -32 13 -67 29 -199 92 -447 169 -626 196
-24 4 -42 10 -40 15 2 4 51 51 111 105 59 53 107 99 107 102 0 8 -23 -12 -135
-115 l-100 -93 -49 4 c-33 2 -53 9 -64 23 -11 14 -13 15 -9 3 5 -15 -9 -17
-133 -17 -77 1 -137 5 -134 9 3 5 0 9 -6 9 -6 0 -8 5 -4 13 5 7 0 6 -11 -3
-17 -14 -17 -13 -10 9 6 18 4 22 -6 15 -8 -5 -20 -9 -28 -11 -7 -1 -25 -13
-40 -27 -25 -24 -28 -25 -49 -10 -12 8 -20 20 -17 25 12 18 -8 8 -42 -21 -60
-53 -66 -32 -8 25 36 35 54 59 49 67 -4 7 -4 10 0 6 4 -3 31 11 59 33 29 21
57 39 63 39 6 0 17 7 24 15 10 12 9 15 -4 15 -10 0 -14 5 -11 10 15 25 -17 4
-100 -64z m123 -148 c-2 -5 -7 -9 -11 -9 -4 1 -19 1 -34 2 l-28 1 25 7 c34 10
51 9 48 -1z m-168 -8 c0 -5 -7 -10 -16 -10 -8 0 -12 5 -9 10 3 6 10 10 16 10
5 0 9 -4 9 -10z m-380 -132 c0 -9 3 -9 12 0 7 7 17 12 23 12 11 -1 -93 -100
-106 -100 -4 0 -23 -14 -41 -31 -18 -18 -27 -28 -19 -24 8 5 12 4 8 -1 -3 -5
-20 -11 -39 -12 -18 -2 -37 -7 -42 -12 -6 -6 -17 -10 -25 -10 -8 0 -22 -6 -30
-14 -22 -18 -68 -28 -76 -16 -3 5 1 10 9 10 28 0 68 23 54 31 -9 6 -7 10 7 15
11 4 40 24 65 44 91 74 141 105 149 92 10 -17 44 -3 37 14 -3 8 -1 14 4 14 6
0 10 -5 10 -12z m900 -58 c0 -5 -4 -10 -9 -10 -6 0 -13 5 -16 10 -3 6 1 10 9
10 9 0 16 -4 16 -10z m-1380 -95 c-7 -8 -18 -15 -24 -15 -6 0 -2 7 8 15 25 19
32 19 16 0z m128 -21 c-4 -3 -12 -6 -20 -8 -23 -3 -39 -17 -32 -28 4 -7 2 -8
-4 -4 -7 4 -12 1 -12 -6 0 -17 -38 -41 -51 -32 -12 7 -51 -25 -43 -37 5 -9
-106 -95 -147 -113 -14 -6 -27 -15 -28 -21 -1 -5 -9 -9 -18 -7 -8 2 -12 -1 -9
-6 5 -8 -23 -39 -66 -71 -15 -11 -17 -10 -13 9 3 17 0 20 -12 16 -13 -5 -14
-4 -3 9 7 8 18 15 24 15 25 0 106 59 100 74 -3 9 2 17 14 20 11 4 36 19 56 34
103 79 127 94 141 88 10 -4 15 1 15 14 0 11 5 20 10 20 6 0 19 9 30 20 11 11
32 20 47 20 14 0 24 -3 21 -6z m1336 -53 c18 -15 22 -51 5 -51 -15 0 -39 -26
-39 -43 0 -8 -7 -20 -16 -28 -13 -11 -15 -9 -10 12 8 31 -10 61 -23 40 -19
-30 -28 -5 -14 42 13 46 15 47 48 44 18 -2 41 -9 49 -16z m-154 -14 c0 -16
-12 -28 -46 -46 -56 -30 -124 -89 -124 -107 0 -22 -31 -16 -37 7 -4 12 -9 16
-12 10 -11 -17 -65 44 -57 64 4 12 12 14 28 9 19 -6 21 -4 12 7 -8 9 -9 22 -3
38 9 24 10 24 28 5 10 -10 16 -23 13 -28 -3 -5 5 -7 17 -3 14 3 24 0 28 -9 4
-11 9 -12 18 -4 9 8 14 7 17 -2 4 -10 8 -10 21 1 10 7 17 19 17 25 0 6 -5 4
-10 -4 -8 -12 -10 -12 -10 5 0 15 7 20 31 21 17 1 38 9 47 18 21 21 22 20 22
-7z m233 -7 c-3 -11 -7 -20 -9 -20 -2 0 -4 9 -4 20 0 11 4 20 9 20 5 0 7 -9 4
-20z m-1299 -123 c-1 -10 3 -14 9 -10 17 11 47 11 47 1 0 -5 5 -6 10 -3 6 3
13 -1 16 -10 4 -8 11 -15 18 -14 24 3 36 -2 36 -14 0 -13 -24 -30 -82 -59 -20
-10 -40 -23 -43 -29 -5 -6 -12 -4 -21 8 -13 17 -15 16 -39 -12 -40 -47 -53
-78 -44 -100 4 -11 8 -32 8 -47 1 -16 6 -28 11 -28 6 0 10 -12 10 -27 0 -17 9
-35 25 -48 23 -18 24 -25 19 -71 -9 -72 -17 -81 -44 -54 -21 21 -24 21 -32 6
-6 -11 -6 -22 2 -31 15 -19 3 -40 -15 -25 -25 21 -49 -42 -34 -89 2 -7 -2 -16
-8 -18 -7 -3 -13 2 -13 10 0 8 -12 18 -26 21 l-26 7 27 25 c30 28 30 36 0 24
-12 -4 -30 -26 -40 -49 -13 -25 -27 -41 -38 -41 -10 0 -15 -5 -12 -10 4 -6 11
-8 16 -5 16 11 10 -7 -8 -22 -16 -12 -15 -13 10 -7 15 3 27 2 27 -3 0 -12 -47
-35 -82 -39 -16 -2 -28 1 -28 6 0 13 22 53 35 63 6 5 -5 5 -22 2 -39 -8 -96 3
-87 16 3 5 13 9 23 9 12 0 24 13 32 33 15 38 27 47 47 39 9 -3 13 -1 9 4 -3 6
10 18 29 29 19 10 34 25 33 34 0 9 -3 11 -5 5 -5 -13 -84 22 -84 38 0 5 -4 7
-9 3 -12 -7 -19 18 -20 65 0 44 31 71 49 42 8 -12 13 -13 16 -4 9 19 34 15 28
-5 -4 -14 -1 -13 14 5 11 12 25 22 30 22 14 0 23 28 11 36 -7 4 -7 10 -1 16 7
7 7 19 1 35 -7 20 -7 24 5 20 10 -4 12 0 9 14 -3 11 -9 22 -14 25 -5 3 -6 16
-3 30 4 16 2 24 -7 24 -8 0 -6 5 5 13 24 17 24 90 1 114 -23 22 2 38 26 17 22
-20 119 -27 140 -11 8 7 18 20 22 30 8 22 33 17 31 -6z m-499 -47 c-21 -17
-40 -28 -43 -25 -3 3 -3 6 -1 8 2 2 17 13 33 25 44 34 54 26 11 -8z m-160 -26
c-23 -17 -34 -2 -14 22 9 11 15 12 23 4 8 -8 6 -15 -9 -26z m1762 17 c0 -11
-5 -18 -9 -15 -4 3 -5 11 -1 19 7 21 12 19 10 -4z m-12 -76 c0 -14 -7 -30 -15
-35 -11 -7 -12 -13 -2 -32 18 -37 18 -50 0 -53 -18 -3 -20 1 -21 42 0 14 -4
19 -14 16 -10 -4 -8 8 9 41 24 51 44 60 43 21z m48 2 c3 -8 -1 -14 -8 -14 -7
0 -11 6 -8 14 3 7 6 13 8 13 2 0 5 -6 8 -13z m-1716 -12 c0 -8 -3 -12 -7 -10
-4 2 -26 -10 -49 -27 -27 -20 -38 -33 -31 -38 8 -5 -4 -20 -34 -44 -54 -45
-81 -39 -35 7 24 24 149 126 155 127 0 0 1 -7 1 -15z m753 5 c0 -5 -2 -10 -4
-10 -3 0 -8 5 -11 10 -3 6 -1 10 4 10 6 0 11 -4 11 -10z m-625 -10 c-3 -5 -12
-10 -18 -10 -7 0 -6 4 3 10 19 12 23 12 15 0z m1440 -32 c30 -26 32 -42 6 -33
-14 4 -23 0 -31 -15 -8 -14 -18 -20 -30 -17 -11 3 -21 0 -24 -7 -3 -7 -9 -4
-16 7 -11 17 -14 16 -36 -14 l-24 -33 0 27 c0 15 4 27 9 27 5 0 12 12 16 27 5
21 8 24 16 12 7 -11 9 -9 9 9 0 13 6 22 15 22 8 0 15 5 15 11 0 16 46 2 75
-23z m-1585 8 c0 -2 -8 -10 -17 -17 -16 -13 -17 -12 -4 4 13 16 21 21 21 13z
m54 -45 c-15 -17 -29 -29 -31 -27 -2 2 9 17 24 34 15 17 29 30 31 28 2 -3 -9
-18 -24 -35z m1251 29 c4 -7 -3 -8 -22 -4 -38 9 -42 14 -10 14 14 0 29 -5 32
-10z m-1105 -38 c21 -26 27 -62 11 -62 -6 0 -13 5 -17 11 -3 6 -15 9 -25 6
-10 -3 -17 -1 -16 3 1 4 -2 8 -8 9 -5 0 -10 -9 -11 -22 0 -12 -6 -21 -12 -19
-7 1 -12 -6 -12 -15 -1 -17 -2 -17 -15 1 -8 11 -21 16 -30 13 -8 -4 -25 -3
-37 2 -21 8 -17 11 35 34 62 28 80 46 21 21 -20 -8 -33 -11 -30 -5 4 5 22 15
41 21 19 6 35 15 35 20 0 18 52 6 70 -18z m680 20 c0 -5 -16 -14 -36 -20 -35
-10 -36 -10 -18 9 17 19 54 26 54 11z m-1122 -41 c-15 -24 -28 -27 -28 -6 0
13 31 38 38 30 2 -2 -3 -12 -10 -24z m901 -17 c6 -15 9 -29 6 -32 -7 -7 -34
29 -35 46 0 21 16 13 29 -14z m145 2 c-3 -8 -11 -13 -17 -11 -7 3 -23 -4 -37
-15 -19 -15 -21 -20 -8 -20 20 0 35 -57 19 -73 -8 -8 -18 -4 -37 15 -35 34
-27 66 23 95 44 26 65 29 57 9z m-874 -44 c0 -12 -61 -55 -68 -47 -3 3 7 17
23 30 31 25 45 31 45 17z m-109 -25 c-10 -9 -11 -8 -5 6 3 10 9 15 12 12 3 -3
0 -11 -7 -18z m14 -71 c-10 -20 -22 -39 -28 -43 -6 -4 -7 -1 -2 7 6 10 4 12
-11 6 -10 -4 -26 -11 -34 -14 -8 -3 -2 5 14 19 16 13 38 33 50 45 28 27 31 22
11 -20z m-195 31 c0 -2 -14 -16 -32 -33 l-31 -29 23 33 c20 27 40 42 40 29z
m1010 -17 c0 -5 -5 -10 -11 -10 -5 0 -7 5 -4 10 3 6 8 10 11 10 2 0 4 -4 4
-10z m-1009 -19 c-18 -32 -98 -108 -115 -108 -9 0 -16 2 -16 5 0 6 44 41 53
42 4 0 23 18 43 40 40 44 50 50 35 21z m989 -21 c0 -5 -5 -10 -11 -10 -5 0 -7
5 -4 10 3 6 8 10 11 10 2 0 4 -4 4 -10z m-30 -65 c0 -8 -4 -15 -10 -15 -5 0
-10 7 -10 15 0 8 5 15 10 15 6 0 10 -7 10 -15z m93 -20 c-3 -9 -8 -14 -10 -11
-3 3 -2 9 2 15 9 16 15 13 8 -4z m-1199 -28 c-11 -5 -28 -17 -39 -26 -11 -9
-7 -1 9 16 16 18 33 30 39 26 5 -3 1 -10 -9 -16z m1296 -3 c0 -8 -4 -12 -10
-9 -5 3 -10 10 -10 16 0 5 5 9 10 9 6 0 10 -7 10 -16z m-47 -1 c-7 -2 -21 -2
-30 0 -10 3 -4 5 12 5 17 0 24 -2 18 -5z m-123 -7 c0 -2 -7 -9 -15 -16 -13
-11 -14 -10 -9 4 5 14 24 23 24 12z m-1215 -48 c-4 -33 -4 -34 -15 -18 -9 13
-11 13 -20 0 -6 -9 -10 -10 -10 -3 0 9 36 43 46 43 1 0 0 -10 -1 -22z m1280
-18 c-3 -5 -12 -10 -18 -10 -7 0 -6 4 3 10 19 12 23 12 15 0z m-535 -19 c0
-11 3 -27 6 -35 5 -13 2 -15 -17 -7 -36 13 -69 -6 -69 -41 0 -15 -5 -28 -10
-28 -12 0 -10 60 3 77 4 6 14 10 22 7 7 -3 21 6 32 20 22 30 33 33 33 7z
m-787 -5 c7 4 -3 -8 -20 -26 -18 -18 -30 -37 -26 -43 4 -6 -2 -8 -16 -4 -18 4
-20 3 -10 -9 6 -8 7 -14 1 -14 -5 0 -27 -16 -48 -35 -27 -25 -40 -31 -45 -23
-6 9 -10 8 -15 -5 -3 -9 -16 -17 -27 -17 -21 0 -21 1 3 24 14 13 29 21 33 19
23 -13 56 10 76 53 22 46 73 100 79 83 2 -5 9 -6 15 -3z m1387 -11 c-7 -9 -15
-13 -19 -10 -3 3 1 10 9 15 21 14 24 12 10 -5z m46 -21 c-3 -9 -6 -23 -6 -32
-1 -9 -12 -30 -26 -47 l-26 -30 6 49 c3 27 11 55 17 62 16 20 43 18 35 -2z
m-1396 -7 c0 -2 -15 -16 -32 -33 l-33 -29 29 33 c28 30 36 37 36 29z m597 -27
c-42 -23 -60 -25 -55 -8 5 13 38 25 73 27 13 1 7 -6 -18 -19z m673 0 c12 -8 9
-15 -20 -40 -81 -71 -121 -89 -63 -28 23 24 25 30 13 38 -12 8 -10 10 8 10 12
0 21 3 21 8 -4 24 14 29 41 12z m30 -43 c0 -7 -4 -17 -9 -22 -15 -17 -22 -75
-8 -75 13 -1 -30 -40 -44 -40 -24 0 1 123 29 139 23 14 32 13 32 -2z m25 -54
c-10 -40 -17 -20 -9 23 5 24 9 32 12 21 2 -10 1 -30 -3 -44z m48 5 c-12 -23
-13 -33 -5 -36 20 -6 13 -21 -8 -19 -11 1 -20 2 -20 3 0 7 30 71 36 77 13 13
13 7 -3 -25z m-456 4 c-10 -10 -17 -24 -17 -31 0 -6 -7 -25 -15 -41 -14 -27
-14 -29 2 -24 14 4 13 1 -4 -14 -13 -11 -23 -24 -23 -29 0 -4 -9 -14 -20 -21
-16 -10 -20 -10 -21 0 0 7 -5 0 -10 -17 -7 -24 -5 -34 11 -49 19 -19 21 -19
55 -3 45 21 45 21 45 -3 0 -13 -7 -20 -20 -20 -11 0 -29 -9 -39 -19 -11 -11
-22 -17 -25 -14 -3 4 -6 1 -6 -6 0 -7 9 -11 22 -9 11 2 23 -3 26 -11 3 -8 0
-11 -7 -7 -6 4 -16 4 -21 1 -16 -10 16 -36 34 -29 12 4 16 0 16 -16 0 -19 4
-22 29 -17 19 4 33 1 41 -8 10 -12 16 -12 34 -3 11 7 24 12 28 13 4 0 20 13
35 28 16 16 44 38 63 51 19 12 44 36 56 53 12 18 24 30 26 27 3 -2 12 10 21
28 17 36 73 96 61 65 -5 -13 -1 -17 21 -17 17 0 25 -5 22 -12 -2 -7 -15 -13
-30 -13 -33 0 -39 -7 -31 -39 5 -21 12 -26 36 -26 l30 0 -17 -27 c-10 -15 -14
-28 -9 -30 21 -8 84 -76 84 -92 0 -3 -14 -12 -31 -18 -18 -7 -28 -17 -24 -23
3 -6 3 -10 -2 -9 -32 6 -43 -2 -37 -26 3 -14 3 -25 -1 -25 -13 0 -80 34 -87
44 -8 12 20 38 32 31 5 -3 10 2 14 10 4 11 -2 15 -19 15 -21 0 -25 5 -25 33
-1 29 -19 67 -33 67 -5 0 -2 -13 21 -87 10 -34 5 -42 -15 -22 -8 8 -13 8 -17
0 -4 -6 -2 -11 4 -11 6 0 8 -10 4 -28 -10 -40 -20 -47 -50 -33 -22 10 -29 9
-37 -1 -6 -10 -8 -9 -4 4 6 17 -17 28 -61 28 -13 0 -20 4 -17 10 3 6 22 10 41
10 39 0 106 39 99 57 -2 7 0 15 5 18 11 7 14 45 4 45 -4 0 -37 -25 -75 -55
-79 -64 -165 -102 -191 -86 -10 6 -25 8 -35 5 -13 -4 -11 0 6 14 23 19 24 20
5 26 -11 3 -30 25 -42 49 -19 36 -22 38 -22 17 0 -14 7 -37 14 -52 8 -16 11
-28 7 -28 -16 0 -41 74 -47 139 -7 73 1 145 15 136 11 -6 62 51 92 104 12 23
27 41 32 41 6 0 3 -8 -6 -18z m-155 -54 c-9 -9 -12 -7 -12 12 0 19 3 21 12 12
9 -9 9 -15 0 -24z m-62 -9 c0 -6 -4 -7 -10 -4 -5 3 -10 11 -10 16 0 6 5 7 10
4 6 -3 10 -11 10 -16z m770 5 c0 -18 -43 -62 -65 -66 -22 -5 -24 -3 -13 11 32
39 78 72 78 55z m-1616 -35 c-10 -11 -28 -25 -39 -31 -12 -5 -7 3 13 21 37 35
55 42 26 10z m817 -10 c-9 -22 -10 -22 -10 -3 -1 11 2 24 6 27 12 12 14 0 4
-24z m-788 -19 c-5 -19 -23 -39 -23 -25 0 9 20 45 24 45 2 0 2 -9 -1 -20z
m1015 -44 c-23 -36 -48 -54 -48 -35 0 12 62 81 67 75 3 -2 -6 -20 -19 -40z
m-353 -8 c-8 -12 -23 -22 -35 -23 -16 -1 -18 1 -8 14 32 43 73 51 43 9z m-705
9 c0 -2 -10 -12 -22 -23 l-23 -19 19 23 c18 21 26 27 26 19z m995 -37 c3 -5 1
-10 -4 -10 -6 0 -11 5 -11 10 0 6 2 10 4 10 3 0 8 -4 11 -10z m-1045 -14 c0
-2 -8 -10 -17 -17 -16 -13 -17 -12 -4 4 13 16 21 21 21 13z m-50 -46 c0 -5 -5
-10 -11 -10 -5 0 -7 5 -4 10 3 6 8 10 11 10 2 0 4 -4 4 -10z m1183 -25 c-6
-17 -25 -15 -31 3 -2 7 5 12 17 12 14 0 19 -5 14 -15z m527 -35 c0 -5 -4 -10
-10 -10 -5 0 -10 5 -10 10 0 6 5 10 10 10 6 0 10 -4 10 -10z m-100 -141 c0 -6
11 -24 25 -41 29 -35 31 -44 9 -52 -22 -9 -46 13 -39 35 3 9 1 20 -5 24 -13 8
-13 45 0 45 6 0 10 -5 10 -11z m-270 -57 c0 -15 -2 -15 -10 -2 -13 20 -13 33
0 25 6 -3 10 -14 10 -23z m-71 -15 c0 -9 -2 -8 -6 1 -2 6 -10 9 -15 6 -7 -4
-8 -2 -4 5 9 13 26 5 25 -12z m151 -67 c0 -5 -4 -10 -10 -10 -5 0 -10 5 -10
10 0 6 5 10 10 10 6 0 10 -4 10 -10z m-1193 -29 c0 -11 -5 -17 -9 -15 -11 7
-10 34 1 34 6 0 9 -9 8 -19z m1443 9 c0 -5 -4 -10 -10 -10 -5 0 -10 5 -10 10
0 6 5 10 10 10 6 0 10 -4 10 -10z m30 -50 c0 -5 -5 -10 -11 -10 -5 0 -7 5 -4
10 3 6 8 10 11 10 2 0 4 -4 4 -10z"/>
<path d="M3085 1580 c-3 -6 1 -7 9 -4 18 7 21 14 7 14 -6 0 -13 -4 -16 -10z"/>
<path d="M4195 1550 c3 -5 11 -10 16 -10 6 0 7 5 4 10 -3 6 -11 10 -16 10 -6
0 -7 -4 -4 -10z"/>
<path d="M3210 1177 c0 -9 4 -18 9 -21 5 -4 8 1 7 9 -3 21 -16 31 -16 12z"/>
<path d="M3235 1131 c-3 -5 -1 -12 5 -16 5 -3 10 1 10 9 0 18 -6 21 -15 7z"/>
<path d="M2694 1268 l-19 -23 23 19 c21 18 27 26 19 26 -2 0 -12 -10 -23 -22z"/>
<path d="M3478 432 c-19 -4 -25 -32 -7 -32 5 0 7 -4 4 -10 -3 -5 -1 -10 5 -10
13 0 23 23 18 42 -1 8 -11 12 -20 10z"/>
<path d="M3545 340 c-3 -5 -1 -10 4 -10 6 0 11 5 11 10 0 6 -2 10 -4 10 -3 0
-8 -4 -11 -10z"/>
<path d="M3480 305 c0 -9 5 -15 11 -13 6 2 11 8 11 13 0 5 -5 11 -11 13 -6 2
-11 -4 -11 -13z"/>
<path d="M3815 2193 c-19 -20 -34 -38 -32 -39 2 -2 18 1 36 6 28 8 31 7 21 -5
-7 -8 -8 -15 -4 -15 5 0 15 9 22 21 8 12 9 18 3 15 -21 -14 -21 16 1 34 19 16
20 19 6 20 -9 0 -33 -16 -53 -37z"/>
<path d="M4018 2223 c-19 -5 -24 -18 -9 -27 4 -3 16 3 26 14 18 20 16 22 -17
13z"/>
<path d="M4230 2210 c-13 -11 -19 -20 -13 -20 5 0 18 9 28 20 10 11 16 20 13
20 -3 0 -15 -9 -28 -20z"/>
<path d="M3745 2200 c-3 -5 -1 -10 4 -10 6 0 11 5 11 10 0 6 -2 10 -4 10 -3 0
-8 -4 -11 -10z"/>
<path d="M3977 2195 c-4 -9 -11 -14 -16 -11 -5 3 -11 -4 -15 -17 -5 -17 -8
-19 -15 -8 -11 18 -23 -1 -15 -26 4 -13 3 -15 -4 -4 -8 11 -13 10 -30 -7 l-21
-21 32 1 c37 1 57 13 87 51 15 19 19 31 12 43 -8 15 -10 15 -15 -1z"/>
<path d="M4337 2170 c-14 -11 -32 -20 -40 -20 -9 0 -22 -13 -31 -30 -8 -16
-12 -30 -9 -30 6 0 81 58 105 83 24 23 7 22 -25 -3z"/>
<path d="M4181 2154 c-32 -31 -14 -31 24 1 18 14 24 24 15 24 -8 -1 -26 -12
-39 -25z"/>
<path d="M3552 2104 c-35 -31 -61 -59 -58 -62 3 -2 -11 -18 -32 -34 -20 -16
-41 -37 -46 -46 -9 -15 -8 -16 10 -2 40 31 203 200 193 200 -2 0 -32 -25 -67
-56z"/>
<path d="M4576 2130 l-17 -35 22 21 c12 12 19 28 17 35 -3 8 -12 -1 -22 -21z"/>
<path d="M4113 2135 c-9 -24 1 -27 15 -5 8 13 8 20 2 20 -6 0 -13 -7 -17 -15z"/>
<path d="M4215 2120 c-3 -5 -1 -10 4 -10 6 0 11 5 11 10 0 6 -2 10 -4 10 -3 0
-8 -4 -11 -10z"/>
<path d="M3799 2103 c-13 -16 -12 -17 4 -4 9 7 17 15 17 17 0 8 -8 3 -21 -13z"/>
<path d="M4395 2110 c-3 -5 -1 -10 4 -10 6 0 11 5 11 10 0 6 -2 10 -4 10 -3 0
-8 -4 -11 -10z"/>
<path d="M4061 2071 c-13 -3 -25 -14 -27 -24 -3 -24 10 -21 42 8 28 26 26 28
-15 16z"/>
<path d="M4260 2069 c0 -5 5 -7 10 -4 6 3 10 8 10 11 0 2 -4 4 -10 4 -5 0 -10
-5 -10 -11z"/>
<path d="M4509 2063 c-13 -16 -12 -17 4 -4 9 7 17 15 17 17 0 8 -8 3 -21 -13z"/>
<path d="M3469 2053 c-13 -16 -12 -17 4 -4 16 13 21 21 13 21 -2 0 -10 -8 -17
-17z"/>
<path d="M3615 2059 c-11 -17 1 -21 15 -4 8 9 8 15 2 15 -6 0 -14 -5 -17 -11z"/>
<path d="M3899 2053 c-13 -16 -12 -17 4 -4 16 13 21 21 13 21 -2 0 -10 -8 -17
-17z"/>
<path d="M4218 2063 c-10 -2 -18 -11 -18 -19 0 -12 4 -12 20 -4 11 6 20 15 20
20 0 6 -1 9 -2 9 -2 -1 -11 -3 -20 -6z"/>
<path d="M3719 2033 c-13 -16 -12 -17 4 -4 16 13 21 21 13 21 -2 0 -10 -8 -17
-17z"/>
<path d="M3550 2015 c-14 -16 -10 -18 14 -9 9 3 16 10 16 15 0 14 -16 11 -30
-6z"/>
<path d="M3180 2001 c0 -6 -6 -11 -13 -11 -7 0 -23 -11 -35 -25 -12 -14 -25
-25 -29 -25 -5 0 -13 -11 -20 -25 -13 -28 -6 -26 37 11 14 12 38 33 54 46 20
17 25 27 18 32 -7 4 -12 2 -12 -3z"/>
<path d="M3300 1975 c-8 -9 -8 -15 -2 -15 12 0 26 19 19 26 -2 2 -10 -2 -17
-11z"/>
<path d="M3652 1955 c-7 -8 -9 -15 -4 -15 5 0 15 7 22 15 16 19 -1 19 -18 0z"/>
<path d="M3181 1914 c0 -11 3 -14 6 -6 3 7 2 16 -1 19 -3 4 -6 -2 -5 -13z"/>
<path d="M3248 1836 c-27 -24 -48 -47 -48 -51 0 -8 68 45 94 74 34 38 2 22
-46 -23z"/>
<path d="M3209 1853 c-13 -16 -12 -17 4 -4 9 7 17 15 17 17 0 8 -8 3 -21 -13z"/>
<path d="M2920 1850 c0 -5 4 -10 9 -10 6 0 13 5 16 10 3 6 -1 10 -9 10 -9 0
-16 -4 -16 -10z"/>
<path d="M3036 1805 c4 -8 11 -15 16 -15 6 0 5 6 -2 15 -7 8 -14 15 -16 15 -2
0 -1 -7 2 -15z"/>
<path d="M3090 1799 c0 -5 5 -7 10 -4 6 3 10 8 10 11 0 2 -4 4 -10 4 -5 0 -10
-5 -10 -11z"/>
<path d="M3106 1764 c-57 -47 -71 -73 -19 -36 31 22 90 82 81 82 -3 0 -31 -21
-62 -46z"/>
<path d="M2864 1755 c-21 -20 -30 -32 -19 -26 20 9 73 61 63 61 -2 0 -22 -16
-44 -35z"/>
<path d="M3040 1765 c-8 -9 -8 -15 -2 -15 12 0 26 19 19 26 -2 2 -10 -2 -17
-11z"/>
<path d="M5010 1730 c14 -11 32 -27 41 -35 19 -18 29 -19 29 -2 0 14 -63 57
-82 57 -7 -1 -2 -9 12 -20z"/>
<path d="M2975 1702 c-23 -20 -63 -56 -90 -80 l-50 -43 49 33 c58 39 155 127
141 127 -5 0 -28 -16 -50 -37z"/>
<path d="M3080 1709 c0 -5 5 -7 10 -4 6 3 10 8 10 11 0 2 -4 4 -10 4 -5 0 -10
-5 -10 -11z"/>
<path d="M2890 1686 c0 -9 5 -16 10 -16 6 0 10 4 10 9 0 6 -4 13 -10 16 -5 3
-10 -1 -10 -9z"/>
<path d="M2962 1645 l-37 -36 37 21 c20 12 39 27 42 35 8 23 -1 18 -42 -20z"/>
<path d="M2850 1649 c0 -5 -4 -7 -10 -4 -5 3 -10 -1 -10 -9 0 -14 -37 -42 -51
-39 -3 1 -6 -4 -6 -12 0 -9 17 -3 50 19 53 33 70 56 43 56 -9 0 -16 -5 -16
-11z"/>
<path d="M2691 1588 c-28 -23 -49 -43 -46 -46 5 -5 75 49 95 73 21 26 5 17
-49 -27z"/>
<path d="M5405 1620 c3 -5 10 -10 16 -10 5 0 9 5 9 10 0 6 -7 10 -16 10 -8 0
-12 -4 -9 -10z"/>
<path d="M2616 1581 c-16 -16 -25 -34 -22 -39 3 -6 -15 -26 -41 -45 -27 -20
-61 -50 -78 -68 -19 -21 -9 -15 30 17 33 28 72 58 88 67 15 10 27 26 27 38 0
11 4 18 9 15 8 -5 24 34 17 41 -1 2 -15 -10 -30 -26z"/>
<path d="M5240 1595 c-9 -11 -7 -18 11 -32 12 -10 41 -35 64 -55 23 -21 45
-38 49 -38 18 0 67 -56 63 -72 -5 -18 14 -19 55 -3 11 4 20 0 28 -15 8 -15 17
-19 31 -15 11 4 30 0 42 -8 12 -7 34 -17 50 -21 15 -3 27 -13 27 -22 0 -8 4
-13 8 -10 5 3 19 -4 31 -15 27 -26 129 -71 142 -64 18 11 9 21 -45 48 -30 15
-60 35 -67 44 -19 23 -81 61 -174 106 -72 35 -243 140 -255 157 -3 4 -15 12
-26 18 -17 9 -24 8 -34 -3z"/>
<path d="M5450 1599 c0 -5 5 -7 10 -4 6 3 10 8 10 11 0 2 -4 4 -10 4 -5 0 -10
-5 -10 -11z"/>
<path d="M2740 1565 c0 -17 -17 -20 -22 -4 -2 7 -10 4 -18 -7 -9 -11 -10 -15
-2 -10 6 4 12 2 12 -3 0 -6 -5 -11 -10 -11 -6 0 -20 -9 -32 -20 -35 -32 -7
-23 45 15 44 33 59 55 37 55 -5 0 -10 -7 -10 -15z"/>
<path d="M2778 1544 c-55 -46 -53 -44 -41 -44 11 0 102 79 91 80 -3 0 -26 -16
-50 -36z"/>
<path d="M5457 1540 c-9 -34 -8 -48 1 -32 6 9 12 6 22 -12 16 -31 36 -40 36
-16 0 10 -3 18 -6 18 -22 -2 -31 6 -38 35 -8 31 -8 32 -15 7z"/>
<path d="M3678 1543 c7 -3 16 -2 19 1 4 3 -2 6 -13 5 -11 0 -14 -3 -6 -6z"/>
<path d="M5150 1543 c-20 -8 -50 -43 -50 -59 0 -7 13 -15 29 -19 16 -3 39 -15
52 -26 27 -23 39 -24 39 -4 0 8 -4 15 -10 15 -5 0 -10 8 -10 18 0 14 -2 14 -9
3 -6 -10 -8 -3 -6 22 3 32 1 35 -18 32 -21 -4 -22 -4 -3 10 20 15 14 18 -14 8z"/>
<path d="M5396 1542 c-3 -6 -1 -14 5 -17 15 -10 25 3 12 16 -7 7 -13 7 -17 1z"/>
<path d="M2506 1518 c3 -5 -7 -24 -22 -41 l-29 -30 31 21 c49 33 58 49 34 55
-12 3 -18 1 -14 -5z"/>
<path d="M5085 1510 c3 -5 8 -10 11 -10 2 0 4 5 4 10 0 6 -5 10 -11 10 -5 0
-7 -4 -4 -10z"/>
<path d="M5264 1486 c4 -12 2 -23 -6 -27 -8 -5 -6 -8 8 -7 24 2 25 21 4 41
-10 10 -12 8 -6 -7z"/>
<path d="M2440 1470 c-12 -7 -12 -11 -2 -20 6 -5 10 -7 7 -4 -3 4 0 13 6 21
13 15 10 16 -11 3z"/>
<path d="M2405 1430 c3 -5 11 -10 16 -10 6 0 7 5 4 10 -3 6 -11 10 -16 10 -6
0 -7 -4 -4 -10z"/>
<path d="M5714 1412 c4 -7 2 -12 -3 -12 -6 0 -11 -4 -11 -10 0 -15 17 -12 23
5 4 8 1 17 -5 21 -7 4 -8 3 -4 -4z"/>
<path d="M2548 1403 c7 -3 16 -2 19 1 4 3 -2 6 -13 5 -11 0 -14 -3 -6 -6z"/>
<path d="M5640 1396 c0 -2 7 -7 16 -10 8 -3 12 -2 9 4 -6 10 -25 14 -25 6z"/>
<path d="M2466 1378 c3 -5 10 -6 15 -3 13 9 11 12 -6 12 -8 0 -12 -4 -9 -9z"/>
<path d="M2501 1366 c-13 -14 -28 -23 -35 -20 -6 2 -25 -9 -41 -26 -16 -16
-23 -30 -16 -30 7 0 9 -5 5 -11 -4 -8 -9 -7 -14 2 -12 19 -43 -9 -37 -33 4
-15 1 -18 -14 -13 -15 5 -39 -12 -102 -72 -45 -43 -85 -82 -88 -87 -4 -5 -15
-6 -24 -2 -12 4 -16 2 -12 -8 3 -8 -7 -25 -23 -40 -38 -34 -74 -103 -57 -109
7 -3 -1 -16 -23 -35 -19 -16 -32 -33 -28 -37 4 -4 49 31 100 79 51 47 95 86
98 86 4 0 46 38 95 85 102 98 105 114 5 24 -87 -77 -112 -73 -31 4 38 37 58
63 55 72 -4 8 -1 15 6 15 6 0 8 -4 5 -10 -3 -5 2 -10 13 -10 22 0 75 53 65 65
-5 4 -2 5 4 1 7 -4 30 10 56 34 47 43 63 50 53 24 -6 -15 -4 -15 10 -3 10 8
12 15 5 17 -6 2 -8 9 -4 15 11 18 14 47 5 47 -5 0 -19 -11 -31 -24z m-111
-106 c0 -5 -5 -10 -11 -10 -5 0 -7 5 -4 10 3 6 8 10 11 10 2 0 4 -4 4 -10z
m-190 -214 c0 -10 -142 -128 -147 -122 -8 8 117 125 135 126 6 0 12 -2 12 -4z"/>
<path d="M5770 1355 c0 -19 -4 -23 -17 -18 -15 6 -14 4 2 -13 18 -18 90 -64
101 -64 11 0 2 31 -11 36 -8 4 -15 16 -15 28 -1 19 -2 19 -11 3 -14 -24 -29
-12 -29 24 0 16 -4 29 -10 29 -5 0 -10 -11 -10 -25z"/>
<path d="M5187 1351 c3 -11 11 -22 18 -24 10 -4 10 0 1 19 -13 29 -26 32 -19
5z"/>
<path d="M5455 1350 c3 -5 11 -10 16 -10 6 0 7 5 4 10 -3 6 -11 10 -16 10 -6
0 -7 -4 -4 -10z"/>
<path d="M4738 1329 c-13 -14 -26 -17 -48 -13 -26 6 -30 4 -31 -17 -1 -13 0
-28 1 -34 1 -5 3 -30 5 -54 1 -25 7 -47 13 -49 7 -2 12 -10 12 -17 0 -7 6 -15
13 -18 7 -2 -2 -12 -20 -23 -18 -11 -33 -26 -33 -35 0 -9 -8 -23 -17 -30 -15
-12 -16 -12 -10 3 3 10 -2 26 -15 40 l-20 23 16 -27 c15 -25 15 -28 -2 -37 -9
-6 -11 -11 -4 -11 22 0 13 -31 -40 -137 -35 -71 -55 -100 -62 -93 -16 16 -56
12 -56 -6 0 -11 6 -15 20 -11 26 7 81 -38 73 -58 -3 -8 0 -15 6 -15 6 0 11 5
11 10 0 16 26 12 41 -7 10 -11 10 -14 2 -9 -8 4 -13 2 -13 -8 0 -27 20 -28 30
-2 11 30 11 30 44 15 25 -12 25 -12 9 -43 -10 -17 -16 -39 -14 -48 3 -21 -17
-60 -28 -54 -4 3 -8 0 -9 -7 -1 -7 -4 -25 -8 -41 l-7 -28 52 36 c75 53 82 44
15 -22 -77 -75 -157 -131 -184 -129 -21 1 -21 2 4 24 14 12 27 33 28 47 2 19
5 22 15 14 30 -24 59 19 31 45 -20 19 -57 20 -64 3 -7 -18 -34 -22 -34 -6 0 5
-3 9 -7 9 -20 -3 -34 3 -51 22 -19 19 -20 19 -38 2 -16 -16 -17 -16 -11 -1 4
12 0 19 -14 23 -10 4 -17 10 -14 15 3 5 1 11 -5 15 -5 3 -10 1 -10 -5 0 -6 -4
-9 -9 -5 -5 3 -12 -4 -16 -15 -3 -11 -12 -20 -18 -20 -21 0 -40 17 -33 29 4 6
2 11 -3 11 -6 0 -11 -4 -11 -8 0 -5 -12 -14 -27 -21 -22 -10 -28 -10 -35 3 -5
9 -15 16 -23 16 -7 0 -20 7 -29 15 -11 11 -17 12 -22 3 -4 -6 -2 -14 4 -16 6
-2 9 -9 6 -15 -5 -14 51 -38 70 -31 8 3 16 -2 20 -12 5 -13 9 -14 22 -4 11 10
12 15 3 20 -6 4 -1 7 12 7 20 0 24 -5 27 -35 1 -20 4 -46 7 -59 2 -13 0 -21
-5 -18 -5 3 -11 1 -15 -4 -3 -6 7 -17 22 -25 22 -12 24 -15 9 -16 -16 0 -16
-2 -5 -16 11 -14 13 -14 21 0 12 22 30 20 51 -4 9 -11 23 -20 32 -20 11 0 13
-7 8 -31 -5 -29 -4 -31 16 -24 21 6 22 4 19 -32 -2 -25 -8 -38 -18 -39 -35 -2
-40 -5 -40 -19 0 -15 -19 -14 -67 1 -22 6 -14 -44 10 -68 16 -17 31 -22 47
-18 32 8 37 28 8 39 -22 10 -22 10 5 8 21 -1 27 -6 27 -24 0 -17 6 -23 20 -23
20 0 19 -1 -5 -25 -28 -29 -30 -37 -15 -66 14 -24 27 -24 35 0 9 29 32 33 78
11 50 -25 51 -25 44 0 -3 13 1 24 14 31 24 13 7 34 -30 37 -14 1 -27 6 -30 11
-3 4 -16 13 -28 20 -27 14 -33 71 -8 71 8 0 15 5 15 10 0 6 12 10 26 10 14 0
22 -4 19 -10 -3 -5 2 -24 12 -42 9 -18 16 -37 15 -43 -1 -5 14 -21 33 -34 19
-13 35 -31 36 -40 0 -10 2 -11 6 -3 7 18 21 15 25 -5 3 -15 5 -14 10 5 5 18 2
22 -15 22 -16 0 -18 3 -9 12 7 7 12 20 12 30 0 21 4 22 30 6 24 -15 34 -6 26
25 -3 15 -15 27 -30 31 -13 3 -26 15 -29 26 -3 12 -17 22 -35 26 -30 6 -30 6
-10 26 16 16 24 17 46 9 16 -6 20 -10 10 -10 -9 -1 -19 -4 -21 -8 -6 -10 52
-8 76 2 9 4 17 13 17 20 0 7 9 24 21 39 27 34 20 33 -22 -4 -19 -16 -39 -30
-46 -30 -21 0 -27 23 -9 34 25 15 76 66 76 76 0 4 9 10 20 13 27 7 37 37 18
51 -8 6 -13 17 -10 24 2 7 1 32 -2 55 -5 30 -13 45 -28 52 -23 11 -45 68 -28
73 6 2 8 8 5 12 -3 5 -13 6 -22 3 -11 -4 -14 -3 -9 6 9 13 83 6 100 -9 5 -5
14 -6 21 -4 7 3 14 -5 17 -20 3 -17 0 -26 -9 -28 -11 -2 -9 -10 9 -31 18 -20
29 -26 44 -21 16 7 17 5 7 -7 -16 -20 -11 -71 7 -77 13 -5 13 -3 1 11 -12 15
-10 17 22 17 20 0 39 5 42 10 4 6 1 9 -6 8 -6 -2 -13 2 -16 9 -3 7 3 9 16 6
15 -4 21 -1 21 12 0 14 3 15 14 6 8 -6 11 -22 8 -37 -3 -16 1 -30 9 -35 11 -8
10 -9 -5 -7 -10 2 -21 -3 -23 -10 -4 -10 6 -12 42 -7 44 5 49 3 80 -30 19 -19
38 -35 44 -35 6 0 11 -4 11 -10 0 -5 6 -10 14 -10 8 0 16 -7 20 -15 6 -17 47
-20 63 -4 8 8 13 3 18 -19 4 -22 11 -29 21 -25 8 3 25 -4 37 -15 14 -14 30
-19 44 -16 18 5 19 10 12 37 -4 18 -11 44 -14 59 -8 39 -45 61 -79 49 -30 -12
-56 -5 -56 15 0 17 31 34 63 34 27 0 45 29 26 40 -8 6 -8 9 1 12 7 2 11 10 9
17 -4 11 -8 10 -21 -3 -22 -21 -44 -20 -85 5 -25 16 -32 26 -28 41 4 10 1 25
-5 33 -10 12 -10 18 1 31 12 14 11 16 -6 13 -14 -3 -22 -15 -26 -42 -5 -33 -3
-41 17 -54 28 -18 29 -26 9 -46 -8 -8 -13 -16 -11 -18 2 -2 6 -16 10 -31 9
-40 -10 -34 -24 6 -6 19 -22 41 -35 50 -14 9 -22 22 -19 30 3 9 -5 21 -20 31
-34 23 -33 31 11 71 20 19 32 34 25 34 -7 0 -12 -4 -12 -10 0 -5 -7 -10 -15
-10 -8 0 -15 6 -15 13 0 19 63 80 101 98 19 9 46 22 61 29 14 7 31 9 37 5 7
-4 18 -1 26 5 8 7 21 10 28 7 8 -3 21 8 32 25 10 17 12 28 5 23 -9 -6 -10 -3
0 14 6 12 18 25 26 28 9 3 14 19 14 44 0 21 5 39 10 39 6 0 10 19 10 41 0 36
-2 40 -15 29 -8 -7 -13 -15 -10 -19 2 -4 -2 -25 -10 -47 -12 -33 -14 -35 -15
-13 0 38 -10 42 -38 17 l-25 -23 7 28 c6 26 5 27 -21 22 -22 -4 -21 -2 9 11
l37 17 -22 17 c-12 9 -33 23 -47 29 -22 11 -21 10 5 -12 17 -14 26 -29 22 -34
-5 -4 -13 0 -18 10 -6 9 -15 17 -21 17 -7 0 -6 -6 2 -15 15 -19 9 -28 -14 -19
-9 3 -16 17 -16 29 0 13 -5 27 -11 31 -8 4 -9 -1 -4 -16 5 -16 3 -21 -6 -18
-7 2 -16 15 -19 27 -5 23 -25 34 -117 61 -28 9 -40 17 -36 26 8 20 25 17 67
-11 41 -28 54 -32 37 -12 -6 8 -8 17 -5 20 10 10 42 -15 37 -29 -3 -8 6 -11
26 -10 17 1 31 -1 31 -6 0 -4 9 -8 21 -8 11 0 34 -9 51 -21 16 -12 31 -19 33
-17 5 5 -26 67 -34 66 -22 -2 -41 3 -36 11 3 5 1 12 -5 16 -16 10 -12 22 10
28 29 7 43 48 22 65 -22 17 -25 16 -44 -18 -11 -18 -25 -30 -38 -30 -12 0 -30
-5 -41 -11 -16 -8 -30 -7 -60 5 -22 9 -53 16 -69 16 -39 0 -117 40 -123 63 -3
9 -14 17 -25 17 -11 0 -22 5 -24 11 -2 7 -13 3 -27 -8 -21 -17 -22 -20 -7 -32
9 -7 16 -21 16 -30 0 -14 2 -14 11 -1 9 12 10 12 5 -3 -3 -10 -6 -20 -6 -22 0
-3 -20 6 -44 18 -35 17 -43 26 -39 43 7 31 -18 45 -39 23z m-41 -51 c-3 -8 -6
-5 -6 6 -1 11 2 17 5 13 3 -3 4 -12 1 -19z m513 -78 c0 -13 -11 -13 -30 0 -12
8 -11 10 8 10 12 0 22 -4 22 -10z m-472 -48 c-6 -28 -23 -15 -25 18 -1 33 -1
34 13 15 8 -11 13 -26 12 -33z m262 -42 c3 -3 20 -18 38 -33 19 -15 29 -27 23
-27 -6 0 -19 8 -29 18 -10 10 -23 17 -29 15 -5 -2 -20 5 -32 15 l-23 18 24 0
c12 0 25 -2 28 -6z m180 -46 c0 -2 -13 2 -30 11 -16 9 -30 18 -30 21 0 2 14
-2 30 -11 17 -9 30 -18 30 -21z m35 -14 c3 -5 2 -10 -4 -10 -5 0 -13 5 -16 10
-3 6 -2 10 4 10 5 0 13 -4 16 -10z m-72 -20 c19 -17 -10 -16 -38 2 l-30 20 30
-7 c17 -3 34 -10 38 -15z m-77 -5 c16 -12 16 -14 3 -15 -9 0 -22 7 -29 15 -16
19 0 19 26 0z m226 -57 c-7 -7 -12 -8 -12 -2 0 14 12 26 19 19 2 -3 -1 -11 -7
-17z m-407 -14 c14 -14 24 -29 21 -31 -6 -6 -56 38 -56 50 0 12 8 8 35 -19z
m60 -74 c3 -5 1 -10 -4 -10 -6 0 -11 5 -11 10 0 6 2 10 4 10 3 0 8 -4 11 -10z
m-31 -43 c8 -12 7 -20 -2 -29 -14 -14 -18 -11 -28 26 -5 21 -4 28 6 24 8 -2
18 -12 24 -21z m-164 4 c0 -6 -4 -13 -10 -16 -5 -3 -10 1 -10 9 0 9 5 16 10
16 6 0 10 -4 10 -9z m-210 -40 c0 -6 -4 -13 -10 -16 -5 -3 -10 1 -10 9 0 9 5
16 10 16 6 0 10 -4 10 -9z m437 -128 c-12 -3 -17 -11 -14 -23 2 -10 1 -24 -4
-31 -8 -11 -13 -9 -29 10 -11 13 -20 27 -20 31 0 10 26 18 60 18 17 0 19 -2 7
-5z m47 -8 c3 -8 1 -15 -4 -15 -6 0 -10 7 -10 15 0 8 2 15 4 15 2 0 6 -7 10
-15z m13 -67 c-3 -7 -5 -2 -5 12 0 14 2 19 5 13 2 -7 2 -19 0 -25z m-67 -18
c13 -9 13 -10 0 -10 -8 0 -22 5 -30 10 -13 9 -13 10 0 10 8 0 22 -5 30 -10z
m-300 -10 c0 -5 -5 -10 -11 -10 -5 0 -7 5 -4 10 3 6 8 10 11 10 2 0 4 -4 4
-10z m10 -126 c0 -9 9 -23 19 -32 15 -13 17 -22 11 -39 -5 -13 -16 -23 -24
-23 -7 0 -16 -7 -20 -15 -10 -26 -29 -17 -22 10 4 15 2 25 -4 25 -6 0 -8 -4
-5 -10 3 -5 -1 -10 -9 -10 -20 0 -20 17 0 37 8 9 13 23 10 32 -5 13 -4 13 7
-1 19 -24 27 -12 20 25 -4 21 -3 28 5 23 7 -4 12 -14 12 -22z m530 -80 c0 -8
-5 -12 -10 -9 -6 4 -8 11 -5 16 9 14 15 11 15 -7z"/>
<path d="M4675 380 c3 -5 8 -10 11 -10 2 0 4 5 4 10 0 6 -5 10 -11 10 -5 0 -7
-4 -4 -10z"/>
<path d="M2304 1318 l-19 -23 23 19 c21 18 27 26 19 26 -2 0 -12 -10 -23 -22z"/>
<path d="M3880 1330 c0 -5 5 -10 11 -10 5 0 7 5 4 10 -3 6 -8 10 -11 10 -2 0
-4 -4 -4 -10z"/>
<path d="M6089 1313 c-13 -16 -12 -17 4 -4 16 13 21 21 13 21 -2 0 -10 -8 -17
-17z"/>
<path d="M5434 1278 c6 -33 28 -56 35 -37 2 6 -2 15 -9 19 -10 6 -9 9 1 12 18
6 4 38 -17 38 -13 0 -15 -6 -10 -32z"/>
<path d="M3940 1271 c0 -11 5 -23 10 -26 6 -3 10 3 10 14 0 11 -4 23 -10 26
-5 3 -10 -3 -10 -14z"/>
<path d="M6108 1279 c-24 -13 -23 -29 2 -29 11 0 20 2 20 4 0 2 3 11 6 20 7
18 -3 20 -28 5z"/>
<path d="M5180 1260 c-12 -8 -10 -10 8 -10 13 0 20 4 17 10 -7 12 -6 12 -25 0z"/>
<path d="M2409 1224 c-21 -24 -22 -26 -3 -16 25 13 50 42 37 42 -5 0 -20 -12
-34 -26z"/>
<path d="M5940 1232 c6 -13 14 -21 18 -18 3 4 -2 14 -12 24 -18 16 -18 16 -6
-6z"/>
<path d="M5715 1231 c-6 -11 9 -23 19 -14 9 9 7 23 -3 23 -6 0 -12 -4 -16 -9z"/>
<path d="M2416 1185 c-11 -8 -17 -17 -14 -20 2 -3 13 4 23 15 21 23 18 25 -9
5z"/>
<path d="M5791 1183 c-9 -15 -12 -15 -20 -4 -6 9 -11 10 -15 2 -4 -6 -12 -9
-17 -6 -5 4 -18 3 -29 0 -20 -6 -20 -7 2 -30 22 -23 23 -23 39 -4 20 23 31 25
23 4 -4 -8 -1 -15 5 -15 6 0 11 6 11 14 0 7 9 16 21 19 12 3 19 11 17 18 -7
21 -26 21 -37 2z"/>
<path d="M2179 1143 c-27 -25 -48 -48 -46 -50 3 -2 28 19 58 47 30 27 50 50
46 50 -4 0 -30 -21 -58 -47z"/>
<path d="M5423 1153 c-4 -10 2 -23 17 -35 29 -23 54 -20 58 8 2 17 -5 24 -29
33 -40 14 -38 14 -46 -6z"/>
<path d="M5580 1160 c0 -5 7 -10 15 -10 8 0 15 5 15 10 0 6 -7 10 -15 10 -8 0
-15 -4 -15 -10z"/>
<path d="M6254 1144 c-18 -14 -18 -14 6 -3 31 14 36 19 24 19 -6 0 -19 -7 -30
-16z"/>
<path d="M3990 1130 c0 -5 5 -10 11 -10 5 0 7 5 4 10 -3 6 -8 10 -11 10 -2 0
-4 -4 -4 -10z"/>
<path d="M5647 1127 c-11 -29 -9 -53 4 -40 6 6 9 21 7 34 -3 21 -4 22 -11 6z"/>
<path d="M4610 1123 c0 -5 7 -17 15 -27 13 -17 15 -18 15 -3 0 9 5 17 10 17 6
0 10 5 10 10 0 6 -11 10 -25 10 -14 0 -25 -3 -25 -7z"/>
<path d="M5367 1110 c-10 -10 -14 -20 -9 -24 10 -6 52 21 52 35 0 15 -24 9
-43 -11z"/>
<path d="M4550 1111 c0 -5 7 -12 16 -15 14 -5 15 -4 4 9 -14 17 -20 19 -20 6z"/>
<path d="M4081 1061 c-8 -5 -11 -16 -8 -25 10 -24 22 -19 22 9 0 14 0 25 0 25
0 0 -6 -4 -14 -9z"/>
<path d="M3835 1040 c-3 -5 -1 -10 4 -10 6 0 11 5 11 10 0 6 -2 10 -4 10 -3 0
-8 -4 -11 -10z"/>
<path d="M3944 996 c-8 -20 -1 -29 20 -24 13 3 13 6 1 22 -13 17 -15 18 -21 2z"/>
<path d="M3752 984 c-13 -9 -21 -22 -18 -29 3 -8 0 -16 -7 -19 -7 -2 -4 -5 6
-5 10 -1 20 6 23 14 4 8 14 15 23 15 14 0 14 2 1 10 -13 9 -13 11 0 20 8 5 10
10 5 10 -6 0 -21 -7 -33 -16z"/>
<path d="M6309 973 c-13 -17 -13 -17 6 -3 11 8 22 16 24 17 2 2 0 3 -6 3 -6 0
-17 -8 -24 -17z"/>
<path d="M4388 932 c-2 -16 2 -34 9 -41 11 -9 13 -4 13 29 0 46 -16 54 -22 12z"/>
<path d="M5556 925 c-3 -8 -12 -12 -21 -9 -19 8 -19 -5 0 -26 15 -16 11 -50
-5 -50 -4 0 -15 16 -24 35 -22 45 -52 47 -61 5 -4 -16 -4 -34 0 -40 3 -6 -1
-17 -9 -26 -32 -31 -10 -54 28 -29 14 9 30 14 36 10 5 -3 10 -1 10 4 0 6 7 11
16 11 13 0 13 -2 2 -13 -7 -7 -25 -17 -39 -24 -20 -9 -28 -20 -31 -48 -3 -23
1 -42 9 -50 7 -8 13 -23 13 -34 0 -12 4 -20 9 -18 5 1 17 -7 27 -19 11 -11 33
-27 49 -36 17 -8 29 -20 27 -26 -1 -7 5 -15 13 -18 20 -8 19 -20 -6 -45 -16
-16 -23 -18 -35 -8 -8 6 -17 9 -21 6 -3 -4 2 -9 11 -13 9 -3 13 -11 9 -17 -3
-6 -1 -7 5 -3 7 4 12 3 12 -2 0 -5 12 -14 26 -21 l26 -12 -28 -22 c-16 -12
-30 -25 -32 -29 -2 -5 -9 -8 -15 -8 -6 0 2 14 19 32 16 17 23 28 16 23 -9 -5
-24 3 -42 21 -15 16 -35 35 -44 42 -18 14 -22 52 -5 52 5 0 9 8 7 18 -1 9 1
22 4 28 4 6 -1 17 -11 25 -24 20 -41 22 -35 4 8 -21 -42 -78 -80 -91 -31 -11
-31 -11 -8 -23 12 -6 22 -8 22 -2 0 5 6 11 13 14 8 3 14 -1 14 -9 0 -8 -5 -14
-11 -15 -20 -1 29 -18 55 -18 26 -1 65 -31 40 -31 -7 0 -9 -4 -6 -10 3 -5 2
-10 -4 -10 -5 0 -11 5 -13 11 -4 11 -67 28 -105 29 -21 0 -21 -2 -9 -32 8 -18
19 -34 24 -36 6 -2 9 -9 6 -17 -6 -15 24 -35 44 -28 6 3 12 0 12 -7 0 -6 5 -8
12 -4 6 4 8 3 5 -3 -9 -14 23 -53 45 -57 24 -3 58 -36 58 -56 0 -9 -5 -21 -12
-28 -9 -9 -9 -12 0 -12 6 0 21 18 31 39 l20 39 -22 6 c-18 5 -19 8 -8 15 16
10 35 -10 61 -64 16 -32 25 -45 51 -73 18 -20 18 -80 -1 -92 -21 -13 -31 -2
-24 26 5 19 2 24 -13 24 -10 0 -24 -5 -31 -12 -9 -9 -17 -7 -35 10 -31 30 -38
28 -26 -8 6 -16 15 -27 20 -24 5 3 9 -2 9 -11 0 -13 -6 -16 -24 -11 -15 4 -28
0 -36 -9 -11 -14 -7 -15 31 -13 24 2 47 7 51 13 5 6 8 5 8 -2 0 -9 18 -13 55
-13 48 0 54 2 48 17 -7 17 -5 17 20 0 23 -15 47 -18 137 -16 61 1 110 5 110
10 0 5 -4 9 -10 9 -5 0 -10 13 -10 29 0 17 -5 33 -10 36 -6 4 -8 11 -5 16 4 5
2 9 -3 9 -14 0 -3 41 17 63 13 16 13 19 1 27 -18 12 -41 12 -55 2 -17 -12 -36
-52 -30 -62 4 -6 0 -10 -7 -10 -8 0 -15 13 -16 29 -3 36 25 65 77 82 20 6 41
16 48 21 19 15 35 0 23 -22 -14 -27 -12 -43 5 -36 8 3 14 2 14 -2 -3 -19 2
-26 10 -13 7 11 12 11 32 -2 13 -8 39 -17 58 -21 32 -6 33 -5 26 22 -6 25 -5
26 8 8 13 -18 14 -18 20 5 6 20 9 22 18 9 8 -11 9 -4 5 30 -2 24 -10 46 -15
48 -6 2 -11 10 -11 18 0 8 -6 11 -15 8 -8 -4 -12 -10 -9 -15 3 -5 0 -9 -5 -9
-16 0 -13 16 4 30 17 15 20 40 4 40 -6 0 -9 -7 -6 -14 4 -10 1 -13 -7 -10 -7
3 -16 -2 -19 -10 -4 -9 -14 -12 -26 -9 -12 3 -32 -2 -46 -11 -14 -9 -39 -18
-55 -19 -17 -1 -30 -4 -30 -7 0 -3 -10 -6 -21 -7 -12 -1 -30 -9 -40 -19 -11
-10 -25 -14 -36 -9 -17 6 -17 7 0 20 26 19 40 75 23 89 -8 6 -17 21 -21 33 -6
21 -4 22 26 16 29 -5 31 -4 21 12 -7 14 -6 22 5 33 8 9 12 24 9 37 -7 26 10
37 46 30 32 -7 88 5 88 18 0 6 7 19 16 28 15 16 15 22 2 51 -8 18 -20 44 -26
58 -7 16 -11 19 -11 9 -1 -19 -31 -48 -31 -30 0 6 4 11 8 11 13 0 12 59 0 66
-7 5 -9 1 -5 -9 3 -9 1 -19 -5 -23 -7 -4 -8 -3 -4 4 9 15 5 15 -30 2 -18 -7
-30 -7 -39 0 -7 6 -20 7 -30 4 -13 -5 -14 -9 -3 -15 13 -9 5 -19 -27 -33 -6
-3 -4 -8 3 -14 11 -7 10 -10 -3 -16 -26 -10 -35 -7 -29 8 6 16 -61 30 -84 17
-8 -5 -34 -6 -57 -3 -23 2 -51 0 -61 -6 -10 -5 -28 -6 -39 -2 -15 5 -2 10 46
19 36 6 80 11 97 11 18 0 32 4 32 10 0 5 8 7 18 3 14 -5 13 -3 -3 10 -17 13
-21 13 -28 1 -11 -19 -31 -18 -23 1 3 8 1 15 -5 15 -6 0 -9 6 -6 14 7 19 -35
40 -64 31 -23 -6 -22 -5 6 22 25 25 32 28 41 15 9 -13 12 -13 17 2 4 10 1 19
-8 22 -8 4 -15 10 -15 16 0 5 5 6 10 3 6 -3 10 -2 10 3 0 5 -11 12 -24 14 -25
5 -42 -14 -30 -33 3 -5 -1 -9 -9 -9 -19 0 -23 13 -22 78 0 36 -3 52 -12 52 -7
0 -13 -9 -13 -19 0 -23 -28 -22 -42 2 -11 21 -34 22 -42 2z m65 -232 c13 -15
12 -15 -8 -4 -24 12 -29 21 -14 21 5 0 15 -7 22 -17z m-153 -155 c-2 -6 -10
-14 -16 -16 -7 -2 -10 2 -6 12 7 18 28 22 22 4z m262 -18 c0 -5 -2 -10 -4 -10
-3 0 -8 5 -11 10 -3 6 -1 10 4 10 6 0 11 -4 11 -10z m-133 -220 c-1 -11 -7
-22 -14 -24 -14 -6 -16 4 -7 28 9 23 23 20 21 -4z m157 -85 c-4 -8 -8 -15 -10
-15 -2 0 -4 7 -4 15 0 8 4 15 10 15 5 0 7 -7 4 -15z m66 -23 c0 -5 -6 -17 -14
-27 -13 -18 -14 -18 -9 8 5 24 23 39 23 19z"/>
<path d="M3900 921 c0 -5 5 -13 10 -16 6 -3 10 -2 10 4 0 5 -4 13 -10 16 -5 3
-10 2 -10 -4z"/>
<path d="M5700 915 c0 -9 6 -12 15 -9 9 4 18 -2 24 -17 8 -20 10 -21 10 -5 1
10 -7 25 -16 32 -23 18 -33 17 -33 -1z"/>
<path d="M3705 870 c3 -5 8 -10 11 -10 2 0 4 5 4 10 0 6 -5 10 -11 10 -5 0 -7
-4 -4 -10z"/>
<path d="M4275 870 c3 -5 8 -10 11 -10 2 0 4 5 4 10 0 6 -5 10 -11 10 -5 0 -7
-4 -4 -10z"/>
<path d="M3770 860 c0 -5 5 -10 11 -10 5 0 7 5 4 10 -3 6 -8 10 -11 10 -2 0
-4 -4 -4 -10z"/>
<path d="M3730 839 c0 -5 5 -7 10 -4 6 3 10 8 10 11 0 2 -4 4 -10 4 -5 0 -10
-5 -10 -11z"/>
<path d="M4370 830 c0 -5 5 -10 10 -10 6 0 10 5 10 10 0 6 -4 10 -10 10 -5 0
-10 -4 -10 -10z"/>
<path d="M6240 768 c16 -61 55 -187 60 -191 3 -3 6 7 7 21 2 40 -53 202 -68
202 -4 0 -3 -15 1 -32z"/>
<path d="M5234 765 c-4 -14 -4 -29 -1 -32 10 -9 57 7 54 18 -4 20 17 19 43 -1
14 -11 20 -20 13 -20 -6 0 -19 7 -27 16 -21 21 -21 6 0 -17 9 -10 17 -28 18
-40 1 -30 18 -34 44 -11 27 24 28 32 2 32 -13 0 -18 5 -14 15 4 8 15 15 26 15
18 0 19 2 7 16 -7 9 -15 12 -17 6 -2 -6 -20 -2 -43 11 -34 18 -41 19 -49 7 -8
-12 -13 -13 -30 -3 -17 12 -20 10 -26 -12z"/>
<path d="M3965 720 c-7 -11 18 -24 35 -18 6 2 1 9 -9 15 -13 8 -22 9 -26 3z"/>
<path d="M3842 711 c4 -13 18 -16 19 -4 0 4 -5 9 -11 12 -7 2 -11 -2 -8 -8z"/>
<path d="M4045 700 c3 -5 10 -10 16 -10 5 0 9 5 9 10 0 6 -7 10 -16 10 -8 0
-12 -4 -9 -10z"/>
<path d="M4128 683 c7 -3 16 -2 19 1 4 3 -2 6 -13 5 -11 0 -14 -3 -6 -6z"/>
<path d="M3870 660 c0 -5 5 -10 10 -10 6 0 10 5 10 10 0 6 -4 10 -10 10 -5 0
-10 -4 -10 -10z"/>
<path d="M4510 663 c0 -5 4 -15 10 -23 11 -18 25 -7 17 15 -6 15 -27 21 -27 8z"/>
<path d="M5380 648 c0 -4 9 -8 20 -8 11 0 20 4 20 9 0 6 -9 9 -20 8 -11 -1
-20 -5 -20 -9z"/>
<path d="M4477 634 c-8 -8 1 -24 14 -24 5 0 9 7 9 15 0 15 -12 20 -23 9z"/>
<path d="M4730 626 c0 -2 7 -6 15 -10 8 -3 15 -1 15 4 0 6 -7 10 -15 10 -8 0
-15 -2 -15 -4z"/>
<path d="M5398 622 c-20 -4 -23 -28 -8 -52 8 -12 10 -11 10 6 0 11 5 25 12 32
14 14 9 20 -14 14z"/>
<path d="M6625 620 c-3 -6 1 -7 9 -4 18 7 21 14 7 14 -6 0 -13 -4 -16 -10z"/>
<path d="M4110 600 c0 -18 47 -31 75 -20 32 12 31 15 -2 16 -16 0 -38 4 -50 8
-15 5 -23 3 -23 -4z"/>
<path d="M4360 570 c0 -5 5 -10 10 -10 6 0 10 5 10 10 0 6 -4 10 -10 10 -5 0
-10 -4 -10 -10z"/>
<path d="M5335 551 c-3 -5 -1 -12 5 -16 5 -3 10 -1 10 5 0 6 5 8 10 5 6 -3 10
-1 10 4 0 13 -27 14 -35 2z"/>
<path d="M3943 533 c-14 -5 -18 -33 -5 -33 4 0 14 5 22 10 17 11 2 30 -17 23z"/>
<path d="M4826 495 c4 -8 11 -15 16 -15 6 0 5 6 -2 15 -7 8 -14 15 -16 15 -2
0 -1 -7 2 -15z"/>
<path d="M6035 490 c-3 -5 -12 -7 -19 -4 -20 8 -28 -12 -11 -26 12 -10 16 -9
21 3 4 12 14 15 37 10 29 -6 31 -5 18 10 -15 19 -37 22 -46 7z"/>
<path d="M2610 479 c0 -5 5 -7 10 -4 6 3 10 8 10 11 0 2 -4 4 -10 4 -5 0 -10
-5 -10 -11z"/>
<path d="M3900 472 c0 -7 77 -32 100 -32 16 0 11 27 -6 34 -23 9 -94 7 -94 -2z"/>
<path d="M4785 461 c-3 -5 -1 -12 5 -16 12 -7 30 2 30 16 0 12 -27 12 -35 0z"/>
<path d="M4055 450 c-3 -5 -1 -10 4 -10 6 0 11 5 11 10 0 6 -2 10 -4 10 -3 0
-8 -4 -11 -10z"/>
<path d="M2590 440 c0 -5 5 -10 10 -10 6 0 10 5 10 10 0 6 -4 10 -10 10 -5 0
-10 -4 -10 -10z"/>
<path d="M4826 433 c-4 -10 -3 -19 2 -21 6 -2 8 -12 5 -22 -3 -11 -1 -20 5
-20 5 0 10 10 10 23 0 12 1 28 3 36 6 21 -18 24 -25 4z"/>
<path d="M6603 440 c-13 -5 -23 -15 -23 -21 0 -8 4 -8 13 -2 6 6 26 15 42 21
21 7 24 10 10 11 -11 0 -30 -4 -42 -9z"/>
<path d="M6678 443 c7 -3 16 -2 19 1 4 3 -2 6 -13 5 -11 0 -14 -3 -6 -6z"/>
<path d="M4965 432 c-10 -11 -4 -20 15 -25 17 -4 20 -10 14 -34 -4 -15 -11
-32 -16 -38 -6 -6 -7 -4 -3 7 5 12 2 17 -12 16 -10 0 -22 0 -28 2 -23 6 -35
-1 -35 -21 0 -11 -4 -18 -9 -15 -15 10 -19 -43 -4 -56 9 -7 10 -15 4 -21 -5
-5 2 -25 20 -52 34 -51 38 -91 9 -100 -26 -8 -25 -21 5 -51 14 -14 25 -29 25
-34 0 -6 34 -10 78 -9 l77 1 -43 15 c-56 20 -48 27 11 11 51 -13 67 -7 47 17
-11 13 -15 13 -21 3 -6 -9 -9 -4 -9 15 0 28 13 36 26 16 4 -8 10 -6 17 7 7 13
7 19 -1 22 -7 2 -12 11 -12 19 0 11 -7 14 -25 11 -17 -4 -25 -1 -25 8 0 8 5
14 10 14 16 0 0 50 -22 72 -11 11 -22 17 -25 14 -4 -3 -12 -1 -20 6 -18 14
-29 3 -14 -15 12 -16 2 -28 -32 -40 -16 -6 -16 -4 -2 23 9 16 15 31 15 32 -2
18 28 68 43 72 16 4 18 10 12 33 -3 15 -7 38 -8 50 -2 15 -10 23 -30 26 -15 2
-29 1 -32 -1z"/>
<path d="M3906 413 c-12 -12 -6 -33 9 -33 8 0 15 6 15 14 0 17 -14 28 -24 19z"/>
<path d="M3980 396 c0 -2 7 -7 16 -10 8 -3 12 -2 9 4 -6 10 -25 14 -25 6z"/>
<path d="M4150 384 c0 -8 5 -12 10 -9 6 3 10 10 10 16 0 5 -4 9 -10 9 -5 0
-10 -7 -10 -16z"/>
<path d="M4797 366 c-5 -15 -6 -31 -3 -34 8 -8 18 25 14 45 -3 13 -6 10 -11
-11z"/>
<path d="M6542 365 c-6 -14 -10 -25 -8 -25 2 0 11 11 20 25 9 14 13 25 8 25
-5 0 -14 -11 -20 -25z"/>
<path d="M4170 360 c0 -5 5 -10 10 -10 6 0 10 5 10 10 0 6 -4 10 -10 10 -5 0
-10 -4 -10 -10z"/>
<path d="M5076 361 c-4 -7 -5 -15 -2 -18 9 -9 19 4 14 18 -4 11 -6 11 -12 0z"/>
<path d="M3780 350 c0 -5 5 -10 10 -10 6 0 10 5 10 10 0 6 -4 10 -10 10 -5 0
-10 -4 -10 -10z"/>
<path d="M3945 330 c-3 -5 -2 -10 4 -10 5 0 13 5 16 10 3 6 2 10 -4 10 -5 0
-13 -4 -16 -10z"/>
<path d="M6544 325 c-10 -8 -14 -15 -8 -15 6 0 17 7 24 15 16 19 9 19 -16 0z"/>
<path d="M4067 323 c-4 -3 -7 -11 -7 -17 0 -6 5 -5 12 2 6 6 9 14 7 17 -3 3
-9 2 -12 -2z"/>
<path d="M2555 309 c-10 -15 3 -25 16 -12 7 7 7 13 1 17 -6 3 -14 1 -17 -5z"/>
<path d="M5408 303 c6 -2 18 -2 25 0 6 3 1 5 -13 5 -14 0 -19 -2 -12 -5z"/>
<path d="M4087 294 c-4 -4 -4 -10 -2 -14 6 -10 55 0 55 11 0 10 -43 12 -53 3z"/>
<path d="M4225 290 c-3 -5 -1 -10 4 -10 6 0 11 5 11 10 0 6 -2 10 -4 10 -3 0
-8 -4 -11 -10z"/>
<path d="M3895 281 c-3 -5 -1 -12 5 -16 5 -3 10 1 10 9 0 18 -6 21 -15 7z"/>
<path d="M3997 270 c-4 -17 0 -20 26 -20 17 0 28 1 26 3 -2 1 -14 10 -25 20
-21 17 -22 17 -27 -3z"/>
<path d="M2522 271 c2 -7 7 -12 11 -12 12 1 9 15 -3 20 -7 2 -11 -2 -8 -8z"/>
<path d="M4166 265 c-16 -12 -17 -18 -8 -27 10 -10 15 -10 22 2 9 14 14 40 8
40 -2 0 -12 -7 -22 -15z"/>
<path d="M3785 260 c-3 -5 1 -10 9 -10 9 0 16 5 16 10 0 6 -4 10 -9 10 -6 0
-13 -4 -16 -10z"/>
<path d="M5264 243 c2 -29 13 -32 59 -13 16 6 17 9 6 9 -9 1 -22 8 -29 16 -20
25 -39 18 -36 -12z"/>
<path d="M5467 250 c-11 -16 -13 -26 -6 -29 16 -5 31 14 27 35 -3 17 -5 16
-21 -6z"/>
<path d="M6372 240 c0 -19 2 -27 5 -17 2 9 2 25 0 35 -3 9 -5 1 -5 -18z"/>
<path d="M3860 240 c0 -5 5 -10 11 -10 5 0 7 5 4 10 -3 6 -8 10 -11 10 -2 0
-4 -4 -4 -10z"/>
<path d="M6545 240 c3 -5 11 -10 16 -10 6 0 7 5 4 10 -3 6 -11 10 -16 10 -6 0
-7 -4 -4 -10z"/>
<path d="M3845 210 c3 -5 8 -10 11 -10 2 0 4 5 4 10 0 6 -5 10 -11 10 -5 0 -7
-4 -4 -10z"/>
<path d="M6402 200 c0 -14 2 -19 5 -12 2 6 2 18 0 25 -3 6 -5 1 -5 -13z"/>
<path d="M6550 210 c-11 -7 -12 -12 -4 -20 8 -8 13 -6 17 9 3 12 4 21 4 21 -1
0 -9 -5 -17 -10z"/>
<path d="M3050 200 c0 -5 4 -10 9 -10 6 0 13 5 16 10 3 6 -1 10 -9 10 -9 0
-16 -4 -16 -10z"/>
<path d="M5467 203 c-12 -11 -8 -22 14 -33 19 -11 20 -10 8 12 -15 30 -15 29
-22 21z"/>
<path d="M2591 168 c5 -18 15 -38 23 -46 9 -9 12 -27 9 -52 -3 -21 -1 -46 5
-55 9 -17 10 -17 16 3 4 13 16 22 27 22 13 0 19 7 21 25 0 14 1 31 2 38 1 18
22 37 40 37 19 0 20 19 2 43 -13 16 -15 16 -30 2 -9 -9 -16 -25 -16 -36 0 -30
-44 -22 -48 9 -2 14 -14 27 -28 33 -34 12 -34 13 -23 -23z"/>
<path d="M2770 180 c0 -5 5 -10 10 -10 6 0 10 5 10 10 0 6 -4 10 -10 10 -5 0
-10 -4 -10 -10z"/>
<path d="M3915 180 c-4 -6 -10 -8 -15 -5 -16 10 -21 -15 -6 -30 19 -20 32 -19
40 3 3 9 9 23 12 30 7 14 -22 17 -31 2z"/>
<path d="M5290 180 c0 -5 5 -10 10 -10 6 0 10 5 10 10 0 6 -4 10 -10 10 -5 0
-10 -4 -10 -10z"/>
<path d="M6660 170 c-13 -8 -13 -10 2 -10 9 0 20 5 23 10 8 13 -5 13 -25 0z"/>
<path d="M5390 160 c0 -5 6 -7 14 -4 8 3 17 1 20 -4 3 -5 -6 -9 -20 -9 -29 0
-39 -7 -30 -22 4 -6 18 -6 38 0 32 9 51 27 42 41 -7 11 -64 10 -64 -2z"/>
<path d="M4210 137 c0 -16 9 -28 26 -36 34 -15 45 -5 16 15 -12 8 -22 22 -22
30 0 8 -4 14 -10 14 -5 0 -10 -11 -10 -23z"/>
<path d="M5986 144 c-9 -24 -2 -26 12 -4 7 11 8 20 3 20 -5 0 -12 -7 -15 -16z"/>
<path d="M6760 145 c-7 -8 -22 -15 -34 -15 -12 0 -32 -7 -45 -16 l-23 -16 34
-29 c23 -19 28 -28 17 -29 -9 0 -23 -8 -30 -17 -15 -18 -16 -18 38 4 11 4 14
3 9 -5 -5 -8 -2 -10 8 -6 9 3 16 10 16 16 0 5 -4 6 -10 3 -5 -3 -10 -1 -10 5
0 6 7 13 15 16 27 11 16 26 -14 19 -17 -3 -32 -2 -36 4 -4 7 4 11 18 11 22 0
62 30 41 30 -5 0 0 7 10 15 11 8 17 17 14 20 -3 3 -11 -1 -18 -10z m-10 -29
c0 -2 -7 -7 -16 -10 -8 -3 -12 -2 -9 4 6 10 25 14 25 6z"/>
<path d="M2866 134 c-8 -21 -8 -21 8 -27 9 -4 14 2 14 19 0 27 -13 32 -22 8z"/>
<path d="M2983 128 c5 -17 3 -28 -6 -31 -8 -4 -8 -6 0 -6 19 -2 2 -41 -18 -41
-17 0 -17 3 -7 20 10 15 10 22 0 32 -9 9 -12 8 -12 -5 0 -9 -7 -17 -15 -17
-22 0 -18 -32 5 -58 28 -30 58 -28 70 4 6 14 8 30 5 35 -3 5 -2 17 4 26 7 14
4 25 -11 43 l-21 25 6 -27z"/>
<path d="M3057 143 c-11 -10 -8 -35 3 -28 6 4 8 10 5 15 -3 4 1 11 7 13 7 3 8
6 2 6 -6 1 -14 -2 -17 -6z"/>
<path d="M3105 140 c3 -5 8 -10 11 -10 2 0 4 5 4 10 0 6 -5 10 -11 10 -5 0 -7
-4 -4 -10z"/>
<path d="M2730 110 c0 -13 7 -20 20 -20 24 0 25 6 6 26 -20 19 -26 18 -26 -6z"/>
<path d="M6405 121 c-3 -5 -1 -12 5 -16 5 -3 10 1 10 9 0 18 -6 21 -15 7z"/>
<path d="M3940 105 c0 -10 10 -15 28 -15 26 1 26 1 8 15 -25 19 -36 19 -36 0z"/>
<path d="M5390 88 c0 -11 -5 -15 -14 -12 -13 5 -13 2 -3 -19 9 -20 15 -23 29
-16 22 12 22 19 3 45 -13 17 -14 17 -15 2z"/>
<path d="M4300 75 c0 -8 4 -15 9 -15 5 0 14 7 21 15 10 13 9 15 -9 15 -12 0
-21 -6 -21 -15z"/>
<path d="M5487 83 c-4 -3 -7 -11 -7 -17 0 -6 5 -5 12 2 6 6 9 14 7 17 -3 3 -9
2 -12 -2z"/>
<path d="M3020 70 c0 -5 5 -10 10 -10 6 0 10 5 10 10 0 6 -4 10 -10 10 -5 0
-10 -4 -10 -10z"/>
<path d="M4683 61 c-3 -12 -9 -21 -14 -21 -5 0 -9 -7 -9 -15 0 -8 4 -15 9 -15
13 0 32 26 24 34 -4 4 -1 11 6 15 10 6 10 10 1 16 -7 4 -13 -1 -17 -14z"/>
<path d="M6785 70 c-3 -5 -1 -10 4 -10 6 0 11 5 11 10 0 6 -2 10 -4 10 -3 0
-8 -4 -11 -10z"/>
<path d="M5310 61 c0 -6 4 -13 10 -16 6 -3 7 1 4 9 -7 18 -14 21 -14 7z"/>
<path d="M6619 33 c-13 -15 -12 -15 9 -4 23 12 28 21 13 21 -5 0 -15 -7 -22
-17z"/>
<path d="M6795 40 c-3 -5 -1 -10 4 -10 6 0 11 5 11 10 0 6 -2 10 -4 10 -3 0
-8 -4 -11 -10z"/>
<path d="M5410 20 c0 -5 7 -10 15 -10 8 0 15 5 15 10 0 6 -7 10 -15 10 -8 0
-15 -4 -15 -10z"/>
</g>
</svg>
